<?xml version="1.0" encoding="UTF-8"?>
<svg version="1.1" xmlns="http://www.w3.org/2000/svg" width="500" height="500">
<path d="M0 0 C0.8672168 0.24089355 1.73443359 0.48178711 2.62792969 0.72998047 C32.24012395 9.0414341 59.52509432 23.46029046 85.72265625 39.265625 C89.75010694 41.69068352 93.80912956 44.0068017 97.953125 46.2265625 C101.76765803 48.28269136 105.2637531 50.45101697 108.6875 53.125 C109.68007813 53.89070313 110.67265625 54.65640625 111.6953125 55.4453125 C112.48470215 56.05874512 112.48470215 56.05874512 113.29003906 56.68457031 C115.83146041 58.63962146 118.4099327 60.5439315 120.98461914 62.45483398 C131.55073763 70.31207331 141.63190159 78.53729484 151.27734375 87.5 C153.41480872 89.46266511 155.57367288 91.34434926 157.8125 93.1875 C160.91268301 95.8095825 163.51339123 98.73138697 166.1328125 101.828125 C167.40454151 103.30737464 168.71405112 104.75477646 170.0546875 106.171875 C187.89461577 125.09108718 200.81482617 148.51913841 200.3359375 174.9453125 C199.26896003 198.26891098 183.28439614 219.62590957 168 236 C166.82820173 237.3497286 165.66125916 238.7036933 164.5 240.0625 C149.42153811 257.33482586 130.80818166 271.73443269 111.96191406 284.64794922 C110.10555005 285.92726031 108.26522157 287.22619295 106.4296875 288.53515625 C105.32814175 289.31512783 104.22658025 290.09507716 103.125 290.875 C101.73667969 291.86113281 101.73667969 291.86113281 100.3203125 292.8671875 C96.63439966 295.23484445 92.84147928 297.29276634 88.98486328 299.36669922 C85.99284064 301.00391756 83.05267387 302.70897062 80.1171875 304.4453125 C50.55350067 321.91014962 20.32000473 335.48149819 -13 344 C-13.83354004 344.21527344 -14.66708008 344.43054688 -15.52587891 344.65234375 C-20.3305974 345.88087424 -25.14488304 346.98830547 -30 348 C-31.58361328 348.33837891 -31.58361328 348.33837891 -33.19921875 348.68359375 C-56.92874777 352.91579757 -82.16202696 351.74178611 -102.62890625 338.26953125 C-133.99543566 315.07634453 -142.71450496 269.39217456 -148.1875 233.375 C-148.34234863 232.36501953 -148.49719727 231.35503906 -148.65673828 230.31445312 C-151.51797678 210.52551745 -152.41014543 190.85339526 -152.375 170.875 C-152.37368576 169.03716446 -152.37368576 169.03716446 -152.37234497 167.16220093 C-152.32388095 146.51636057 -151.30956622 126.37900138 -148 106 C-147.8764917 105.22889893 -147.7529834 104.45779785 -147.62573242 103.66333008 C-141.62006883 66.41315461 -132.37225806 23.77623474 -100 0 C-70.23021091 -18.66477145 -31.1879 -8.85222328 0 0 Z M-8 114 C-10.73619882 117.03884835 -11.36738325 118.91638233 -11.29296875 122.984375 C-11.28330078 123.91894531 -11.27363281 124.85351562 -11.26367188 125.81640625 C-11.23853516 126.78449219 -11.21339844 127.75257813 -11.1875 128.75 C-11.17396484 129.73355469 -11.16042969 130.71710938 -11.14648438 131.73046875 C-11.11118726 134.15420415 -11.06188054 136.57682145 -11 139 C-12.22976562 138.93039063 -12.22976562 138.93039063 -13.484375 138.859375 C-14.56203125 138.82328125 -15.6396875 138.7871875 -16.75 138.75 C-17.81734375 138.70359375 -18.8846875 138.6571875 -19.984375 138.609375 C-23.09163757 138.75040898 -23.09163757 138.75040898 -25.33203125 140.83203125 C-27.49184862 143.63928802 -27.92788519 145.46637417 -28 149 C-26.26655125 152.72843964 -26.26655125 152.72843964 -23 155 C-20.95944995 155.07065617 -18.91665743 155.08421976 -16.875 155.0625 C-15.77929688 155.05347656 -14.68359375 155.04445312 -13.5546875 155.03515625 C-12.71164063 155.02355469 -11.86859375 155.01195312 -11 155 C-11.00666183 155.64400253 -11.01332367 156.28800507 -11.02018738 156.95152283 C-11.08681215 163.68418358 -11.13191297 170.41674991 -11.16479492 177.1496582 C-11.17983529 179.65881152 -11.20027272 182.16793874 -11.22631836 184.67700195 C-11.26291014 188.29384825 -11.27977448 191.91034542 -11.29296875 195.52734375 C-11.30845261 196.64020248 -11.32393646 197.75306122 -11.33988953 198.89964294 C-11.34192081 208.40571684 -9.83950976 216.22949289 -3.13671875 223.26953125 C3.29234601 228.47625098 11.1127613 229.67817678 19.19140625 229.39453125 C23.28231254 228.81986987 26.71191992 227.52086139 30 225 C32.32579101 221.51131349 32.41865457 220.10281481 32 216 C31.00896625 213.7260937 31.00896625 213.7260937 29 212 C25.6803762 211.40888484 25.6803762 211.40888484 22 211.4375 C15.50729354 211.32252499 15.50729354 211.32252499 13.1875 209.84765625 C9.45681145 204.04299939 9.73443671 197.98851483 9.8046875 191.3515625 C9.8075174 190.33903412 9.81034729 189.32650574 9.81326294 188.28329468 C9.82441746 185.06374062 9.84951354 181.84446935 9.875 178.625 C9.8850359 176.43620195 9.89416069 174.24739951 9.90234375 172.05859375 C9.9243413 166.70563342 9.95777176 161.35283692 10 156 C11.25296875 155.97421875 12.5059375 155.9484375 13.796875 155.921875 C15.44795123 155.86558831 17.09899155 155.8082411 18.75 155.75 C19.9875 155.72873047 19.9875 155.72873047 21.25 155.70703125 C26.24348898 155.52567213 26.24348898 155.52567213 30.51953125 153.10546875 C32.28977764 150.58788879 32.92470911 149.08692667 33 146 C31.61442213 143.16286436 30.22998296 141.22998296 28 139 C25.96532566 138.72313935 25.96532566 138.72313935 23.6484375 138.8046875 C22.79765625 138.81113281 21.946875 138.81757813 21.0703125 138.82421875 C20.18085938 138.84097656 19.29140625 138.85773438 18.375 138.875 C17.4778125 138.88402344 16.580625 138.89304688 15.65625 138.90234375 C13.43723414 138.9259503 11.21874923 138.9588769 9 139 C9.03927612 138.09290283 9.03927612 138.09290283 9.0793457 137.16748047 C9.18385816 134.40358903 9.24849273 131.640114 9.3125 128.875 C9.3753418 127.44800781 9.3753418 127.44800781 9.43945312 125.9921875 C9.55541327 119.75277841 9.55541327 119.75277841 6.69921875 114.38671875 C1.76267149 110.0216965 -2.89582366 109.88830239 -8 114 Z " fill="#F5585F" transform="translate(226,80)"/>
<path d="M0 0 C5.53998251 1.60983258 10.42305454 4.13009934 15.5 6.8125 C16.40983643 7.29098389 17.31967285 7.76946777 18.25708008 8.26245117 C28.712233 13.82202946 38.86101782 19.88864645 49 26 C50.88128411 27.12928334 52.76278747 28.25820153 54.64453125 29.38671875 C56.09635417 30.2578125 57.54817708 31.12890625 59 32 C57.15234375 32.5859375 57.15234375 32.5859375 55 33 C53.30712215 32.04504326 51.64142963 31.0409066 50 30 C47.30745009 29.29329272 47.30745009 29.29329272 45 29 C44.505 27.515 44.505 27.515 44 26 C42.04840259 24.61029562 42.04840259 24.61029562 39.6875 23.4375 C38.90761719 23.02371094 38.12773437 22.60992187 37.32421875 22.18359375 C35.22092331 21.11250381 33.11402022 20.04975375 31 19 C30.67 19.66 30.34 20.32 30 21 C26.125 17.25 26.125 17.25 25 15 C24.01 14.67 23.02 14.34 22 14 C22 13.34 22 12.68 22 12 C21.43410156 11.89042969 20.86820312 11.78085938 20.28515625 11.66796875 C19.55167969 11.50941406 18.81820313 11.35085937 18.0625 11.1875 C17.33160156 11.03667969 16.60070312 10.88585937 15.84765625 10.73046875 C15.23792969 10.48941406 14.62820313 10.24835938 14 10 C13.67 9.01 13.34 8.02 13 7 C12.34 6.896875 11.68 6.79375 11 6.6875 C7.16158991 5.80786436 3.66903309 4.43030104 0 3 C0 2.01 0 1.02 0 0 Z " fill="#DC535C" transform="translate(271,98)"/>
<path d="M0 0 C2.66087169 3.19614908 4.09602561 6.37004895 5.5625 10.25 C5.97628906 11.32765625 6.39007813 12.4053125 6.81640625 13.515625 C13.01460228 31.7624595 10.5872406 48.88852844 2.1875 66 C1.47109292 67.34023233 0.74746071 68.6768355 0 70 C-0.66 70 -1.32 70 -2 70 C-0.76273303 66.10888504 0.66273549 62.35537304 2.25927734 58.59790039 C4.8729791 52.38142128 6.91431617 46.79044389 7 40 C7.0721875 38.83210938 7.144375 37.66421875 7.21875 36.4609375 C7.72452263 25.69995921 5.92233055 15.42347124 0.8359375 5.796875 C0 4 0 4 0 0 Z " fill="#DB4C55" transform="translate(416,216)"/>
<path d="M0 0 C4.62 0 9.24 0 14 0 C14 18.81 14 37.62 14 57 C13.67 57 13.34 57 13 57 C11.75822994 51.23371829 11.87325691 45.56109163 11.90234375 39.6953125 C11.9037587 38.61619598 11.90517365 37.53707947 11.90663147 36.42526245 C11.91221156 32.99181298 11.92476045 29.55842964 11.9375 26.125 C11.94251757 23.79166761 11.94708003 21.4583342 11.95117188 19.125 C11.96217448 13.41664133 11.97942544 7.70833187 12 2 C8.37 2 4.74 2 1 2 C0.67 2.66 0.34 3.32 0 4 C0 2.68 0 1.36 0 0 Z " fill="#D2535B" transform="translate(201,235)"/>
<path d="M0 0 C0.33 0 0.66 0 1 0 C0.67 2.97 0.34 5.94 0 9 C-0.66 9 -1.32 9 -2 9 C-2.12375 10.134375 -2.2475 11.26875 -2.375 12.4375 C-2.94229083 17.03337785 -3.92684788 21.49901249 -5 26 C-5.66 26 -6.32 26 -7 26 C-6.938125 26.928125 -6.87625 27.85625 -6.8125 28.8125 C-7 32 -7 32 -8.4375 33.625 C-9.2109375 34.305625 -9.2109375 34.305625 -10 35 C-10.71447643 37.10332891 -10.71447643 37.10332891 -11 39 C-11.66 39 -12.32 39 -13 39 C-10.81946888 25.48070707 -6.09274953 12.2394172 0 0 Z " fill="#E5606A" transform="translate(97,117)"/>
<path d="M0 0 C1.51261852 0.30882983 3.02159178 0.63582558 4.52734375 0.9765625 C5.74514526 1.24098145 5.74514526 1.24098145 6.98754883 1.51074219 C18.66767269 4.17365839 30.06911719 7.93507654 41.46484375 11.6015625 C41.13484375 12.2615625 40.80484375 12.9215625 40.46484375 13.6015625 C35.51775747 12.75001486 30.77239674 11.26604239 25.96484375 9.8515625 C15.21491074 6.7268366 4.37513623 4.09976524 -6.53515625 1.6015625 C-3.53515625 -0.3984375 -3.53515625 -0.3984375 0 0 Z " fill="#DD4A51" transform="translate(196.53515625,72.3984375)"/>
<path d="M0 0 C0.71671875 0.43441406 1.4334375 0.86882812 2.171875 1.31640625 C14.33316737 8.55607063 26.11224204 11.80146778 40 14 C40 14.33 40 14.66 40 15 C25.52755734 15.85271348 13.68123075 12.20087911 1.9375 3.8125 C1.298125 3.214375 0.65875 2.61625 0 2 C0 1.34 0 0.68 0 0 Z " fill="#D94F56" transform="translate(121,414)"/>
<path d="M0 0 C3.97031653 0.54017912 5.72196006 2.40738974 8.4375 5.25 C9.22382813 6.06339844 10.01015625 6.87679687 10.8203125 7.71484375 C11.53960937 8.46894531 12.25890625 9.22304687 13 10 C13.928125 10.928125 14.85625 11.85625 15.8125 12.8125 C17.875 14.875 19.9375 16.9375 22 19 C21.67 19.99 21.34 20.98 21 22 C20.566875 21.54625 20.13375 21.0925 19.6875 20.625 C17.89201658 18.79975666 17.89201658 18.79975666 15 17 C15 16.34 15 15.68 15 15 C13.71323254 13.78216651 12.37036477 12.6229378 11 11.5 C9.62963523 10.3770622 8.28676746 9.21783349 7 8 C7 7.34 7 6.68 7 6 C6.401875 5.938125 5.80375 5.87625 5.1875 5.8125 C2.12856542 4.6763243 1.44958901 2.82669858 0 0 Z " fill="#D35557" transform="translate(372,165)"/>
<path d="M0 0 C-0.33 0.66 -0.66 1.32 -1 2 C-12.03024122 4.84085704 -23.71546803 4.20434766 -35 4 C-35 3.67 -35 3.34 -35 3 C-30.47983634 2.49382065 -25.95877401 1.99615563 -21.4375 1.5 C-20.16068359 1.35691406 -18.88386719 1.21382813 -17.56835938 1.06640625 C-16.32763672 0.93105469 -15.08691406 0.79570312 -13.80859375 0.65625 C-12.67220459 0.53056641 -11.53581543 0.40488281 -10.36499023 0.27539062 C-6.8946773 -0.0086196 -3.48030728 -0.04642989 0 0 Z " fill="#DE505C" transform="translate(197,426)"/>
<path d="M0 0 C1.32 0 2.64 0 4 0 C5.5625 1.93359375 5.5625 1.93359375 7 4.4375 C8.83003978 7.89721512 8.83003978 7.89721512 12.078125 9.6953125 C12.71234375 9.79585938 13.3465625 9.89640625 14 10 C15.75 11.4375 15.75 11.4375 17 13 C17 13.66 17 14.32 17 15 C15.2109375 15.6796875 15.2109375 15.6796875 13 16 C7.29354085 12.27386458 3.5159269 5.67957422 0 0 Z " fill="#E66D72" transform="translate(107,400)"/>
<path d="M0 0 C5.85659906 1.66153012 11.4590134 3.47041916 17 6 C16.67 6.66 16.34 7.32 16 8 C10.24237834 6.91103333 4.60752181 5.70663707 -1 4 C-0.67 2.68 -0.34 1.36 0 0 Z " fill="#E66068" transform="translate(238,84)"/>
<path d="M0 0 C0.66 0.33 1.32 0.66 2 1 C1.43393721 5.69023454 0.81462495 10.34500026 0 15 C0.66 15.33 1.32 15.66 2 16 C1.2884375 16.556875 1.2884375 16.556875 0.5625 17.125 C-1.52205802 19.62646962 -1.64621491 21.81593418 -2 25 C-2.33 25 -2.66 25 -3 25 C-3.55048791 16.33491247 -1.88081125 8.39647878 0 0 Z " fill="#D8474F" transform="translate(83,159)"/>
<path d="M0 0 C4.38914698 2.82065301 8.4008749 5.87444683 12.375 9.25 C12.92027344 9.70890625 13.46554687 10.1678125 14.02734375 10.640625 C15.35386136 11.75769246 16.67726419 12.87845702 18 14 C15 15 15 15 12.625 13.875 C9.74288578 11.81634699 7.44165532 9.56373809 5 7 C4.071875 6.113125 3.14375 5.22625 2.1875 4.3125 C0 2 0 2 0 0 Z " fill="#D95E65" transform="translate(356,150)"/>
<path d="M0 0 C-2.96828999 1.97885999 -5.77447054 3.25864997 -9.0625 4.625 C-10.12597656 5.07101562 -11.18945312 5.51703125 -12.28515625 5.9765625 C-15 7 -15 7 -17 7 C-17 6.01 -17 5.02 -17 4 C-15.7625 3.54625 -14.525 3.0925 -13.25 2.625 C-10.96389464 1.78127043 -8.93197025 0.96112586 -6.8125 -0.25 C-4.29108246 -1.29334519 -2.57224688 -0.71451302 0 0 Z " fill="#E36F79" transform="translate(256,409)"/>
<path d="M0 0 C4.35970831 1.34849837 8.31341438 3.04907846 12.375 5.125 C13.43460937 5.66382812 14.49421875 6.20265625 15.5859375 6.7578125 C16.38257813 7.16773437 17.17921875 7.57765625 18 8 C18 8.33 18 8.66 18 9 C16.35 9 14.7 9 13 9 C13 8.34 13 7.68 13 7 C12.34 6.896875 11.68 6.79375 11 6.6875 C7.16158991 5.80786436 3.66903309 4.43030104 0 3 C0 2.01 0 1.02 0 0 Z " fill="#E0646C" transform="translate(271,98)"/>
<path d="M0 0 C0.99 0.33 1.98 0.66 3 1 C1.98679687 1.90492187 1.98679687 1.90492187 0.953125 2.828125 C-0.38492188 4.02695313 -0.38492188 4.02695313 -1.75 5.25 C-2.63171875 6.03890625 -3.5134375 6.8278125 -4.421875 7.640625 C-6.67866165 9.70592672 -8.85739926 11.81735064 -11 14 C-11.33 13.01 -11.66 12.02 -12 11 C-10.56564079 9.5385774 -9.12739414 8.08096951 -7.6875 6.625 C-6.88699219 5.81289062 -6.08648437 5.00078125 -5.26171875 4.1640625 C-3 2 -3 2 0 0 Z " fill="#D84A52" transform="translate(125,81)"/>
<path d="M0 0 C1.918125 0.4640625 1.918125 0.4640625 3.875 0.9375 C8.88758722 2.06114833 13.88510956 2.59422581 19 3 C19 3.33 19 3.66 19 4 C16.93906592 4.223293 14.8761161 4.42802887 12.8125 4.625 C11.66394531 4.74101562 10.51539063 4.85703125 9.33203125 4.9765625 C5.92451566 5.00053096 3.95179193 4.67286197 1 3 C0.67 2.01 0.34 1.02 0 0 Z " fill="#E56D71" transform="translate(227,306)"/>
<path d="M0 0 C1.00098698 1.9712419 1.97329198 3.93893576 2.859375 5.96484375 C5.13186965 10.99822007 7.53433471 13.75224343 12 17 C10.68 17.33 9.36 17.66 8 18 C7.67 17.01 7.34 16.02 7 15 C6.38125 14.731875 5.7625 14.46375 5.125 14.1875 C1.95002199 12.41324758 1.26643564 10.35605446 0 7 C-0.1875 3.125 -0.1875 3.125 0 0 Z " fill="#DD5F66" transform="translate(215,288)"/>
<path d="M0 0 C0.33 0 0.66 0 1 0 C2.88341198 6.09339169 3.0748291 10.72532201 2 17 C1.34 17 0.68 17 0 17 C-1.02835363 13.91493912 -1.13368434 11.7305728 -1.125 8.5 C-1.12757812 7.5409375 -1.13015625 6.581875 -1.1328125 5.59375 C-1 3 -1 3 0 0 Z " fill="#E05458" transform="translate(76,207)"/>
<path d="M0 0 C6.43681228 0.51085812 11.95942424 1.72942897 18 4 C17.67 4.66 17.34 5.32 17 6 C13.08878502 5.31063929 9.44491404 4.21749819 5.6875 2.9375 C4.61886719 2.57527344 3.55023438 2.21304688 2.44921875 1.83984375 C1.64097656 1.56269531 0.83273438 1.28554687 0 1 C0 0.67 0 0.34 0 0 Z " fill="#D8424C" transform="translate(220,80)"/>
<path d="M0 0 C3.59634744 3.49359465 6.83451967 7.11098131 10 11 C9.01 11.33 8.02 11.66 7 12 C5.821389 10.76125579 4.65747085 9.5085199 3.5 8.25 C2.8503125 7.55390625 2.200625 6.8578125 1.53125 6.140625 C0 4 0 4 0 0 Z " fill="#E0646B" transform="translate(394,185)"/>
<path d="M0 0 C5.17609824 3.28157862 9.85989729 6.45924219 14 11 C10.61151415 10.35642031 8.1918058 9.06737734 5.3125 7.1875 C4.52488281 6.68605469 3.73726563 6.18460938 2.92578125 5.66796875 C0.77115526 3.80179168 0.35583334 2.78032492 0 0 Z " fill="#DF626A" transform="translate(342,139)"/>
<path d="M0 0 C0.66 0 1.32 0 2 0 C2.33895656 1.72807318 2.67091525 3.45751974 3 5.1875 C3.185625 6.15042969 3.37125 7.11335938 3.5625 8.10546875 C3.96877612 10.7934206 4.07933572 13.28771019 4 16 C1.90885653 12.86328479 1.21017805 10.50950138 0.3125 6.875 C0.04050781 5.79992187 -0.23148437 4.72484375 -0.51171875 3.6171875 C-0.67285156 2.75351562 -0.83398438 1.88984375 -1 1 C-0.67 0.67 -0.34 0.34 0 0 Z " fill="#E1727B" transform="translate(86,348)"/>
<path d="M0 0 C0.33 0 0.66 0 1 0 C1.43494462 4.43643516 1.54001196 6.32863378 -1.3125 9.875 C-4 12 -4 12 -7 13 C-7.33 12.01 -7.66 11.02 -8 10 C-7.05125 9.46375 -6.1025 8.9275 -5.125 8.375 C-1.63260408 5.7207791 -0.95264124 4.19162145 0 0 Z " fill="#E4666D" transform="translate(258,298)"/>
<path d="M0 0 C0.33 0 0.66 0 1 0 C0.67 2.97 0.34 5.94 0 9 C-0.66 9 -1.32 9 -2 9 C-2 10.65 -2 12.3 -2 14 C-2.99 14 -3.98 14 -5 14 C-4.34580901 8.93001981 -2.1453591 4.58009223 0 0 Z " fill="#E67379" transform="translate(97,117)"/>
<path d="M0 0 C0.66 0 1.32 0 2 0 C1.67 1.98 1.34 3.96 1 6 C1.66 6.33 2.32 6.66 3 7 C0.03 9.475 0.03 9.475 -3 12 C-2.49202991 7.6822542 -1.80317221 3.96697886 0 0 Z " fill="#EE6C70" transform="translate(388,313)"/>
<path d="M0 0 C0.33 0 0.66 0 1 0 C0.5188509 5.77378925 -1.18467181 9.95859836 -4 15 C-4.66 15 -5.32 15 -6 15 C-4.40109514 9.80355921 -2.25861997 4.93387858 0 0 Z " fill="#D34850" transform="translate(420,271)"/>
<path d="M0 0 C1.093125 0.185625 2.18625 0.37125 3.3125 0.5625 C6.93624133 1.2578068 6.93624133 1.2578068 10 0 C9.67 0.99 9.34 1.98 9 3 C7.0625 3.75 7.0625 3.75 5 4 C4.34 3.67 3.68 3.34 3 3 C3 3.66 3 4.32 3 5 C2.01 5 1.02 5 0 5 C0 3.33333333 0 1.66666667 0 0 Z " fill="#EE4F59" transform="translate(289,386)"/>
<path d="M0 0 C1.32 0.66 2.64 1.32 4 2 C1.03 4.31 -1.94 6.62 -5 9 C-5.33 8.01 -5.66 7.02 -6 6 C-5.38125 5.938125 -4.7625 5.87625 -4.125 5.8125 C-1.72238859 5.171081 -1.72238859 5.171081 -0.75 2.4375 C-0.5025 1.633125 -0.255 0.82875 0 0 Z " fill="#E46D72" transform="translate(347,353)"/>
<path d="M0 0 C0.99 0.33 1.98 0.66 3 1 C1.35 3.64 -0.3 6.28 -2 9 C-2.99 8.67 -3.98 8.34 -5 8 C-3.35 5.36 -1.7 2.72 0 0 Z " fill="#DA5B62" transform="translate(413,286)"/>
<path d="M0 0 C4.24822374 0.47202486 6.19989709 2.96655518 9 6 C8.67 6.99 8.34 7.98 8 9 C7.67 8.01 7.34 7.02 7 6 C6.38125 5.87625 5.7625 5.7525 5.125 5.625 C3 5 3 5 1.25 2.4375 C0.8375 1.633125 0.425 0.82875 0 0 Z " fill="#D34147" transform="translate(372,165)"/>
<path d="M0 0 C2.97 0.99 5.94 1.98 9 3 C8.67 3.66 8.34 4.32 8 5 C2.46153846 4.38461538 2.46153846 4.38461538 0.125 2.4375 C-0.24625 1.963125 -0.6175 1.48875 -1 1 C-0.67 0.67 -0.34 0.34 0 0 Z " fill="#E27279" transform="translate(246,87)"/>
<path d="M0 0 C0.99 0.33 1.98 0.66 3 1 C3.33 2.65 3.66 4.3 4 6 C4.66 6 5.32 6 6 6 C6.33 6.99 6.66 7.98 7 9 C2.36285097 7.53563715 2.36285097 7.53563715 0.6875 5.0625 C0 3 0 3 0 0 Z " fill="#DA6B73" transform="translate(236,283)"/>
<path d="M0 0 C-1.4562545 0.67119549 -2.91507867 1.33681807 -4.375 2 C-5.59316406 2.556875 -5.59316406 2.556875 -6.8359375 3.125 C-9 4 -9 4 -11 4 C-11 3.01 -11 2.02 -11 1 C-3.375 -1.125 -3.375 -1.125 0 0 Z " fill="#E97982" transform="translate(274,402)"/>
<path d="M0 0 C0.99 0.33 1.98 0.66 3 1 C1.88121617 2.17262904 0.75476949 3.33795138 -0.375 4.5 C-1.00148438 5.1496875 -1.62796875 5.799375 -2.2734375 6.46875 C-4 8 -4 8 -6 8 C-6 7.34 -6 6.68 -6 6 C-5.34 6 -4.68 6 -4 6 C-3.71125 5.38125 -3.4225 4.7625 -3.125 4.125 C-2 2 -2 2 0 0 Z " fill="#DB7E83" transform="translate(382,325)"/>
<path d="M0 0 C0.33 0 0.66 0 1 0 C1 3.63 1 7.26 1 11 C-1.60691842 8.39308158 -1.70416963 6.62392206 -2 3 C-1.34 2.01 -0.68 1.02 0 0 Z " fill="#E0414B" transform="translate(197,222)"/>
<path d="M0 0 C0.99 0 1.98 0 3 0 C3 2.64 3 5.28 3 8 C2.01 8 1.02 8 0 8 C0 5.36 0 2.72 0 0 Z " fill="#E06168" transform="translate(258,223)"/>
<path d="M0 0 C-2.39509338 2.89932357 -4.31245243 3.50168276 -8 4 C-8 3.01 -8 2.02 -8 1 C-3.375 -1.125 -3.375 -1.125 0 0 Z " fill="#DC6B73" transform="translate(247,412)"/>
<path d="M0 0 C4.31392226 0.4793247 6.16569547 1.7457985 9 5 C5.26512223 4.5020163 3.18762365 4.12508244 0 2 C0 1.34 0 0.68 0 0 Z " fill="#DE757D" transform="translate(321,126)"/>
<path d="M0 0 C2.31 0.66 4.62 1.32 7 2 C7 2.66 7 3.32 7 4 C6.34 4 5.68 4 5 4 C4.67 4.66 4.34 5.32 4 6 C2.62437146 4.71034824 1.29233607 3.37310707 0 2 C0 1.34 0 0.68 0 0 Z " fill="#EB4D57" transform="translate(297,113)"/>
<path d="M0 0 C0.99 0 1.98 0 3 0 C3.33 2.31 3.66 4.62 4 7 C3.01 7.495 3.01 7.495 2 8 C1.34 5.36 0.68 2.72 0 0 Z " fill="#DD5964" transform="translate(83,341)"/>
<path d="M0 0 C1.2380014 3.57644848 0.74926071 6.33694766 0 10 C-0.99 10.33 -1.98 10.66 -3 11 C-2.69078116 9.54096742 -2.37751201 8.08279278 -2.0625 6.625 C-1.88847656 5.81289062 -1.71445313 5.00078125 -1.53515625 4.1640625 C-1 2 -1 2 0 0 Z " fill="#E88F92" transform="translate(91,131)"/>
<path d="M0 0 C1.32 0 2.64 0 4 0 C4 0.66 4 1.32 4 2 C2.03533587 3.06775224 0.03144641 4.06553465 -2 5 C-2.66 4.67 -3.32 4.34 -4 4 C-4 3.34 -4 2.68 -4 2 C-2.68 2 -1.36 2 0 2 C0 1.34 0 0.68 0 0 Z " fill="#E5636B" transform="translate(280,395)"/>
<path d="M0 0 C1.32 0.66 2.64 1.32 4 2 C-0.625 5 -0.625 5 -4 5 C-4 4.34 -4 3.68 -4 3 C-2 1.375 -2 1.375 0 0 Z " fill="#E0757F" transform="translate(324,370)"/>
<path d="M0 0 C0.66 0.99 1.32 1.98 2 3 C0.625 5 0.625 5 -1 7 C-1.66 7 -2.32 7 -3 7 C-3 7.66 -3 8.32 -3 9 C-3.66 8.67 -4.32 8.34 -5 8 C-3.35 5.36 -1.7 2.72 0 0 Z " fill="#E5717A" transform="translate(105,103)"/>
<path d="M0 0 C0.99 0.33 1.98 0.66 3 1 C-1.5 5 -1.5 5 -6 5 C-6 4.34 -6 3.68 -6 3 C-4.02 2.67 -2.04 2.34 0 2 C0 1.34 0 0.68 0 0 Z " fill="#DD575E" transform="translate(292,389)"/>
<path d="M0 0 C0.66 0 1.32 0 2 0 C2.66 2.31 3.32 4.62 4 7 C3.34 7 2.68 7 2 7 C1.67 7.66 1.34 8.32 1 9 C0.67 6.03 0.34 3.06 0 0 Z " fill="#E24752" transform="translate(258,295)"/>
<path d="M0 0 C5.49152542 0.61016949 5.49152542 0.61016949 7.875 2.4375 C9 4 9 4 9 6 C7.68 5.34 6.36 4.68 5 4 C5 3.34 5 2.68 5 2 C3.35 1.67 1.7 1.34 0 1 C0 0.67 0 0.34 0 0 Z " fill="#D94F5E" transform="translate(327,131)"/>
<path d="M0 0 C0.99 0.33 1.98 0.66 3 1 C0.36 2.98 -2.28 4.96 -5 7 C-4 3 -4 3 -2.125 1.1875 C-1.42375 0.795625 -0.7225 0.40375 0 0 Z " fill="#CE4249" transform="translate(125,81)"/>
<path d="M0 0 C1.32 0 2.64 0 4 0 C4.66 1.65 5.32 3.3 6 5 C5.01 5 4.02 5 3 5 C1.3125 2.5 1.3125 2.5 0 0 Z " fill="#E3646B" transform="translate(107,400)"/>
<path d="M0 0 C1.98 0.99 1.98 0.99 4 2 C4 3.32 4 4.64 4 6 C4.66 6.33 5.32 6.66 6 7 C5.34 7.66 4.68 8.32 4 9 C2.68 6.03 1.36 3.06 0 0 Z " fill="#E36872" transform="translate(95,378)"/>
<path d="M0 0 C0.99 0 1.98 0 3 0 C3 2.64 3 5.28 3 8 C0.4345406 5.4345406 0.45953913 3.52313332 0 0 Z " fill="#E6858A" transform="translate(90,364)"/>
<path d="M0 0 C2.8992226 0.46761655 3.86675182 0.86675182 6 3 C5.67 3.99 5.34 4.98 5 6 C4.566875 5.54625 4.13375 5.0925 3.6875 4.625 C1.89201658 2.79975666 1.89201658 2.79975666 -1 1 C-0.67 0.67 -0.34 0.34 0 0 Z " fill="#DE4B53" transform="translate(388,181)"/>
</svg>
